
<svg width="50px" height="50px" viewBox="81 -1 50 50" version="1.1" xmlns="http://www.w3.org/2000/svg" xmlns:xlink="http://www.w3.org/1999/xlink">
    <path d="M129.859375,34.265625 C130.015626,34.5468764 130.054688,34.835936 129.976562,35.1328125 C129.898437,35.429689 129.734376,35.6562492 129.484375,35.8125 L129.0625,36 C128.812499,36.1562508 128.546876,36.179688 128.265625,36.0703125 C127.984374,35.960937 127.765626,35.7656264 127.609375,35.484375 L125.359375,31.3125 C125.015623,33.718762 124.273443,35.9453023 123.132812,37.9921875 C121.992182,40.0390727 120.554696,41.8124925 118.820312,43.3125 C117.085929,44.8125075 115.125011,45.9843708 112.9375,46.828125 C110.749989,47.6718792 108.437512,48.09375 106,48.09375 C103.562488,48.09375 101.250011,47.6718792 99.0625,46.828125 C96.8749891,45.9843708 94.9140712,44.8125075 93.1796875,43.3125 C91.4453038,41.8124925 90.0078182,40.0390727 88.8671875,37.9921875 C87.7265568,35.9453023 86.9843767,33.718762 86.640625,31.3125 L84.390625,35.484375 C84.2343742,35.7656264 84.0156264,35.960937 83.734375,36.0703125 C83.4531236,36.179688 83.1875012,36.1562508 82.9375,36 L82.515625,35.8125 C82.2656238,35.6562492 82.1015629,35.429689 82.0234375,35.1328125 C81.9453121,34.835936 81.9843742,34.5468764 82.140625,34.265625 L85.984375,27.1875 L86.265625,26.671875 C86.3593755,26.5468744 86.460937,26.4453129 86.5703125,26.3671875 C86.679688,26.2890621 86.8124992,26.2343752 86.96875,26.203125 C87.0937506,26.1718748 87.2265618,26.1640624 87.3671875,26.1796875 C87.5078132,26.1953126 87.6406244,26.2499995 87.765625,26.34375 L88.234375,26.625 L95.078125,31.265625 C95.3281262,31.4218758 95.4921871,31.648436 95.5703125,31.9453125 C95.6484379,32.242189 95.6093758,32.5312486 95.453125,32.8125 L95.125,33.140625 C94.9687492,33.3906262 94.742189,33.5312498 94.4453125,33.5625 C94.148436,33.5937502 93.8750012,33.5312508 93.625,33.375 L89.546875,30.5625 C89.7968762,32.5312598 90.3515582,34.3515541 91.2109375,36.0234375 C92.0703168,37.6953209 93.1640559,39.1718686 94.4921875,40.453125 C95.8203191,41.7343814 97.335929,42.7734335 99.0390625,43.5703125 C100.742196,44.3671915 102.56249,44.8593741 104.5,45.046875 L104.5,14.953125 L98.5,14.953125 C98.093748,14.953125 97.742189,14.804689 97.4453125,14.5078125 C97.148436,14.210936 97,13.859377 97,13.453125 C97,13.046873 97.148436,12.695314 97.4453125,12.3984375 C97.742189,12.101561 98.093748,11.953125 98.5,11.953125 L104.546875,11.953125 C104.578125,11.9218748 104.59375,11.8984376 104.59375,11.8828125 L104.59375,11.8125 C103.281243,11.4999984 102.179692,10.8046929 101.289062,9.7265625 C100.398433,8.64843211 99.953125,7.39063219 99.953125,5.953125 C99.953125,4.29686672 100.546869,2.87500594 101.734375,1.6875 C102.921881,0.499994063 104.343742,-0.09375 106,-0.09375 C107.687508,-0.09375 109.117182,0.499994063 110.289062,1.6875 C111.460943,2.87500594 112.046875,4.29686672 112.046875,5.953125 C112.046875,7.39063219 111.609379,8.65624453 110.734375,9.75 C109.859371,10.8437555 108.750007,11.5468734 107.40625,11.859375 L107.40625,11.8828125 C107.40625,11.8984376 107.421875,11.9218748 107.453125,11.953125 L113.5,11.953125 C113.906252,11.953125 114.257811,12.101561 114.554688,12.3984375 C114.851564,12.695314 115,13.046873 115,13.453125 C115,13.859377 114.851564,14.210936 114.554688,14.5078125 C114.257811,14.804689 113.906252,14.953125 113.5,14.953125 L107.5,14.953125 L107.5,45.046875 C109.43751,44.8593741 111.257804,44.3671915 112.960938,43.5703125 C114.664071,42.7734335 116.179681,41.7343814 117.507812,40.453125 C118.835944,39.1718686 119.929683,37.6953209 120.789062,36.0234375 C121.648442,34.3515541 122.203124,32.5312598 122.453125,30.5625 L118.375,33.375 C118.124999,33.5312508 117.851564,33.5937502 117.554688,33.5625 C117.257811,33.5312498 117.031251,33.3906262 116.875,33.140625 L116.546875,32.8125 C116.390624,32.5312486 116.351562,32.242189 116.429688,31.9453125 C116.507813,31.648436 116.671874,31.4218758 116.921875,31.265625 L123.765625,26.671875 L123.765625,26.625 L124.234375,26.34375 C124.359376,26.2499995 124.492187,26.1953126 124.632812,26.1796875 C124.773438,26.1640624 124.906249,26.1718748 125.03125,26.203125 C125.187501,26.2343752 125.320312,26.2890621 125.429688,26.3671875 C125.539063,26.4453129 125.640625,26.5468744 125.734375,26.671875 L126.015625,27.1875 L129.859375,34.265625 Z M103,5.953125 C103,6.79687922 103.296872,7.51562203 103.890625,8.109375 C104.484378,8.70312797 105.187496,9 106,9 C106.843754,9 107.570309,8.70312797 108.179688,8.109375 C108.789066,7.51562203 109.09375,6.79687922 109.09375,5.953125 C109.09375,5.10937078 108.789066,4.39062797 108.179688,3.796875 C107.570309,3.20312203 106.843754,2.90625 106,2.90625 C105.187496,2.90625 104.484378,3.20312203 103.890625,3.796875 C103.296872,4.39062797 103,5.10937078 103,5.953125 Z" id="" stroke="none" fill="#7ED321" fill-rule="evenodd"></path>
</svg>