<svg width="9px" height="16px" viewBox="166 2 9 16" version="1.1" xmlns="http://www.w3.org/2000/svg" xmlns:xlink="http://www.w3.org/1999/xlink">
    <path d="M166.984375,17.9228516 C166.916015,17.9228516 166.850098,17.9106447 166.786621,17.8862305 C166.723144,17.8618163 166.666992,17.8251956 166.618164,17.7763672 C166.520507,17.6787104 166.47168,17.5615241 166.47168,17.4248047 C166.47168,17.2880853 166.520507,17.1708989 166.618164,17.0732422 L173.3125,10.3789062 L166.720703,3.80175781 C166.623046,3.70410107 166.574219,3.58447336 166.574219,3.44287109 C166.574219,3.30126882 166.623046,3.18164111 166.720703,3.08398438 C166.81836,2.98632764 166.937988,2.9375 167.07959,2.9375 C167.221192,2.9375 167.34082,2.98632764 167.438477,3.08398438 L174.367188,10.0273438 C174.464844,10.1250005 174.513672,10.2421868 174.513672,10.3789062 C174.513672,10.5156257 174.464844,10.632812 174.367188,10.7304688 L167.335938,17.7763672 C167.287109,17.8251956 167.230957,17.8618163 167.16748,17.8862305 C167.104004,17.9106447 167.042969,17.9228516 166.984375,17.9228516 Z" id="Arrow-right---simple-line-icons" stroke="none" fill="#72BF1F" fill-rule="evenodd"></path>
</svg>