<svg width="16px" height="19px" viewBox="1051 29 16 19" version="1.1" xmlns="http://www.w3.org/2000/svg" xmlns:xlink="http://www.w3.org/1999/xlink">
    <path d="M1065.92578,41.640625 C1066.23047,42.0156269 1066.4707,42.3496079 1066.64648,42.6425781 C1066.82227,42.9355483 1066.83984,43.2285142 1066.69922,43.5214844 C1066.55859,43.8144546 1066.33008,43.9843748 1066.01367,44.03125 C1065.69726,44.0781252 1065.45117,44.1015625 1065.27539,44.1015625 L1061.98828,44.1015625 C1061.98828,44.9335979 1061.69532,45.6425752 1061.10938,46.2285156 C1060.52343,46.8144561 1059.81446,47.1074219 1058.98242,47.1074219 C1058.15039,47.1074219 1057.44141,46.8144561 1056.85547,46.2285156 C1056.26953,45.6425752 1055.97656,44.9335979 1055.97656,44.1015625 L1052.75977,44.1015625 C1052.49023,44.1015625 1052.21192,44.0693363 1051.9248,44.0048828 C1051.63769,43.9404294 1051.42969,43.7792982 1051.30078,43.5214844 C1051.16016,43.2285142 1051.17187,42.9267594 1051.33594,42.6162109 C1051.5,42.3056625 1051.72265,41.9628925 1052.00391,41.5878906 C1052.32031,41.1777323 1052.66601,40.7119167 1053.04102,40.1904297 C1053.41602,39.6689427 1053.60352,39.1269559 1053.60352,38.5644531 L1053.60352,34.890625 C1053.60352,34.093746 1053.74121,33.3466832 1054.0166,32.6494141 C1054.29199,31.952145 1054.66992,31.342776 1055.15039,30.8212891 C1055.63086,30.2998021 1056.19922,29.8896499 1056.85547,29.5908203 C1057.51172,29.2919907 1058.21484,29.1425781 1058.96484,29.1425781 C1059.72657,29.1425781 1060.43554,29.2919907 1061.0918,29.5908203 C1061.74805,29.8896499 1062.31933,30.2998021 1062.80566,30.8212891 C1063.29199,31.342776 1063.67285,31.952145 1063.94824,32.6494141 C1064.22363,33.3466832 1064.36133,34.093746 1064.36133,34.890625 L1064.36133,38.5644531 C1064.36133,39.1386747 1064.54004,39.6953098 1064.89746,40.234375 C1065.25488,40.7734402 1065.59765,41.2421855 1065.92578,41.640625 Z M1058.98242,45.9296875 C1059.48633,45.9296875 1059.91699,45.7509783 1060.27441,45.3935547 C1060.63184,45.036131 1060.81055,44.6054713 1060.81055,44.1015625 L1057.1543,44.1015625 C1057.1543,44.6054713 1057.33301,45.036131 1057.69043,45.3935547 C1058.04785,45.7509783 1058.47851,45.9296875 1058.98242,45.9296875 Z M1065.39844,42.90625 C1065.33984,42.8242183 1065.27539,42.7392583 1065.20508,42.6513672 C1065.13477,42.5634761 1065.06445,42.478516 1064.99414,42.3964844 C1064.60742,41.927732 1064.20606,41.3681673 1063.79004,40.7177734 C1063.37402,40.0673796 1063.16602,39.3496133 1063.16602,38.5644531 L1063.16602,34.890625 C1063.16602,34.2578093 1063.05762,33.6660184 1062.84082,33.1152344 C1062.62402,32.5644504 1062.32813,32.0839864 1061.95312,31.6738281 C1061.57812,31.2636698 1061.13574,30.9384778 1060.62598,30.6982422 C1060.11621,30.4580066 1059.5625,30.3378906 1058.96484,30.3378906 C1058.3789,30.3378906 1057.83106,30.4580066 1057.32129,30.6982422 C1056.81152,30.9384778 1056.36914,31.2636698 1055.99414,31.6738281 C1055.61914,32.0839864 1055.32617,32.5644504 1055.11523,33.1152344 C1054.9043,33.6660184 1054.79883,34.2578093 1054.79883,34.890625 L1054.79883,38.5644531 C1054.79883,39.3261757 1054.5791,40.026364 1054.13965,40.6650391 C1053.70019,41.3037141 1053.31055,41.8515602 1052.9707,42.3085938 C1052.90039,42.4023442 1052.82715,42.5019526 1052.75098,42.6074219 C1052.6748,42.7128912 1052.60742,42.8124995 1052.54883,42.90625 L1065.39844,42.90625 Z" id="" stroke="none" fill="#4A4A4A" fill-rule="evenodd"></path>
</svg>