
<svg width="48px" height="40px" viewBox="81 0 48 40" version="1.1" xmlns="http://www.w3.org/2000/svg" xmlns:xlink="http://www.w3.org/1999/xlink">
    <path d="M124.5,6.5 C126.000007,6.5 127.124996,7.06249437 127.875,8.1875 C128.625004,9.31250563 129,10.2499962 129,11 L129,35.046875 C129,36.2343809 128.507817,37.273433 127.523438,38.1640625 C126.539058,39.054692 125.562505,39.5 124.59375,39.5 L85.171875,39.5 C84.2031202,39.5 83.2656295,39.0625044 82.359375,38.1875 C81.4531205,37.3124956 81,36.2500062 81,35 L81,10.953125 C81,9.48436766 81.5624944,8.37500375 82.6875,7.625 C83.8125056,6.87499625 84.7499962,6.5 85.5,6.5 L92.390625,6.5 L96,0.5 L114,0.5 L117.609375,6.5 L124.5,6.5 Z M126,35.046875 L126,11 C126,10.9374997 125.882814,10.6718773 125.648438,10.203125 C125.414061,9.73437266 125.031253,9.5 124.5,9.5 L115.921875,9.5 L115.078125,8.046875 L112.40625,3.5 L97.6875,3.5 L94.078125,9.5 L85.5,9.5 C85.3749994,9.5 85.0937522,9.62499875 84.65625,9.875 C84.2187478,10.1250012 84,10.4843727 84,10.953125 L84,35 C84,35.406252 84.1562484,35.757811 84.46875,36.0546875 C84.7812516,36.351564 85.0312491,36.5 85.21875,36.5 L124.59375,36.5 C124.812501,36.4687498 125.101561,36.2890641 125.460938,35.9609375 C125.820314,35.6328109 126,35.3281264 126,35.046875 Z M105,11 C106.437507,11 107.796869,11.2734348 109.078125,11.8203125 C110.359381,12.3671902 111.476558,13.1171827 112.429688,14.0703125 C113.382817,15.0234423 114.13281,16.1406186 114.679688,17.421875 C115.226565,18.7031314 115.5,20.0624928 115.5,21.5 C115.5,22.9375072 115.226565,24.2968686 114.679688,25.578125 C114.13281,26.8593814 113.382817,27.9765577 112.429688,28.9296875 C111.476558,29.8828173 110.359381,30.6328098 109.078125,31.1796875 C107.796869,31.7265652 106.437507,32 105,32 C103.562493,32 102.203131,31.7265652 100.921875,31.1796875 C99.6406186,30.6328098 98.5234423,29.8828173 97.5703125,28.9296875 C96.6171827,27.9765577 95.8671902,26.8593814 95.3203125,25.578125 C94.7734348,24.2968686 94.5,22.9375072 94.5,21.5 C94.5,20.0624928 94.7734348,18.7031314 95.3203125,17.421875 C95.8671902,16.1406186 96.6171827,15.0234423 97.5703125,14.0703125 C98.5234423,13.1171827 99.6406186,12.3671902 100.921875,11.8203125 C102.203131,11.2734348 103.562493,11 105,11 Z M105,29 C107.06251,29 108.828118,28.2656323 110.296875,26.796875 C111.765632,25.3281177 112.5,23.5625103 112.5,21.5 C112.5,19.4374897 111.765632,17.6718823 110.296875,16.203125 C108.828118,14.7343677 107.06251,14 105,14 C102.93749,14 101.171882,14.7343677 99.703125,16.203125 C98.2343677,17.6718823 97.5,19.4374897 97.5,21.5 C97.5,23.5625103 98.2343677,25.3281177 99.703125,26.796875 C101.171882,28.2656323 102.93749,29 105,29 Z" id="î¿" stroke="none" fill="#7ED321" fill-rule="evenodd"></path>
</svg>