
<svg width="50px" height="48px" viewBox="80 0 50 48" version="1.1" xmlns="http://www.w3.org/2000/svg" xmlns:xlink="http://www.w3.org/1999/xlink">
    <path d="M128.671875,8.71875 C128.921876,9.00000141 129.046875,9.32812312 129.046875,9.703125 C129.046875,10.0781269 128.921876,10.4218734 128.671875,10.734375 L123.984375,15.984375 C123.859374,16.1406258 123.695314,16.2656245 123.492188,16.359375 C123.289061,16.4531255 123.078126,16.5 122.859375,16.5 L106.453125,16.5 L106.453125,19.5 L118.5,19.5 C118.906252,19.5 119.257811,19.6406236 119.554688,19.921875 C119.851564,20.2031264 120,20.5624978 120,21 L120,31.5 C120,31.9375022 119.851564,32.2968736 119.554688,32.578125 C119.257811,32.8593764 118.906252,33 118.5,33 L106.453125,33 L106.453125,46.59375 C106.453125,46.9687519 106.304689,47.2968736 106.007812,47.578125 C105.710936,47.8593764 105.359377,48 104.953125,48 C104.546873,48 104.195314,47.8593764 103.898438,47.578125 C103.601561,47.2968736 103.453125,46.9687519 103.453125,46.59375 L103.453125,33 L87.140625,33 C86.9218739,33 86.7109385,32.9687503 86.5078125,32.90625 C86.3046865,32.8437497 86.1406256,32.7343758 86.015625,32.578125 L81.328125,27.28125 C81.0781238,26.9999986 80.953125,26.6718769 80.953125,26.296875 C80.953125,25.9218731 81.0781238,25.5937514 81.328125,25.3125 L86.015625,19.96875 C86.1406256,19.8124992 86.3046865,19.6953129 86.5078125,19.6171875 C86.7109385,19.5390621 86.9218739,19.5 87.140625,19.5 L103.453125,19.5 L103.453125,16.5 L91.453125,16.5 C91.046873,16.5 90.695314,16.351564 90.3984375,16.0546875 C90.101561,15.757811 89.953125,15.406252 89.953125,15 L89.953125,4.5 C89.953125,4.09374797 90.101561,3.74218898 90.3984375,3.4453125 C90.695314,3.14843602 91.046873,3 91.453125,3 L103.453125,3 L103.453125,1.40625 C103.453125,1.03124812 103.601561,0.703126406 103.898438,0.421875 C104.195314,0.140623594 104.546873,0 104.953125,0 C105.359377,0 105.710936,0.140623594 106.007812,0.421875 C106.304689,0.703126406 106.453125,1.03124812 106.453125,1.40625 L106.453125,3 L122.859375,3 C123.078126,3 123.289061,3.04687453 123.492188,3.140625 C123.695314,3.23437547 123.859374,3.35937422 123.984375,3.515625 L128.671875,8.71875 Z M117,30 L117,22.5 L87.796875,22.5 L84.46875,26.296875 L87.796875,30 L117,30 Z M122.203125,13.5 L125.53125,9.703125 L122.203125,6 L92.953125,6 L92.953125,13.5 L122.203125,13.5 Z" id="î" stroke="none" fill="#7ED321" fill-rule="evenodd"></path>
</svg>