<svg width="20px" height="21px" viewBox="0 5 20 21" version="1.1" xmlns="http://www.w3.org/2000/svg" xmlns:xlink="http://www.w3.org/1999/xlink">
    <path d="M14.3164062,10.71875 C14.4335943,10.6666664 14.557291,10.6503905 14.6875,10.6699219 C14.817709,10.6894532 14.928385,10.7447912 15.0195312,10.8359375 C15.0976566,10.9270838 15.1464843,11.0377598 15.1660156,11.1679688 C15.185547,11.2981777 15.1627607,11.4218744 15.0976562,11.5390625 L12.1484375,17.3398438 C12.1223957,17.3919273 12.0865888,17.4374998 12.0410156,17.4765625 C11.9954425,17.5156252 11.9466148,17.548177 11.8945312,17.5742188 L5.91796875,20.0546875 C5.87890605,20.0807293 5.83984395,20.0970052 5.80078125,20.1035156 C5.76171855,20.1100261 5.71614609,20.1132812 5.6640625,20.1132812 C5.58593711,20.1132812 5.51106807,20.0970054 5.43945312,20.0644531 C5.36783818,20.0319009 5.30598984,19.9895836 5.25390625,19.9375 C5.16275996,19.8463537 5.10742197,19.7389329 5.08789062,19.6152344 C5.06835928,19.4915358 5.08463516,19.3710943 5.13671875,19.2539062 L7.94921875,13.609375 C7.97526055,13.5572914 8.01106748,13.5084638 8.05664062,13.4628906 C8.10221377,13.4173175 8.15104141,13.3815105 8.203125,13.3554688 L14.3164062,10.71875 Z M6.9921875,18.2382812 L10.4101562,16.9101562 L8.69140625,14.7617188 L6.9921875,18.2382812 Z M11.4257812,16.1875 L13.1445312,12.6523438 L9.6875,14 L11.4257812,16.1875 Z M10,5.25 C11.3802152,5.25 12.6790304,5.51041406 13.8964844,6.03125 C15.1139384,6.55208594 16.1751257,7.26496943 17.0800781,8.16992188 C17.9850306,9.07487432 18.6979141,10.1360616 19.21875,11.3535156 C19.7395859,12.5709696 20,13.8697848 20,15.25 C20,16.6302152 19.7395859,17.9290304 19.21875,19.1464844 C18.6979141,20.3639384 17.9850306,21.4251257 17.0800781,22.3300781 C16.1751257,23.2350306 15.1139384,23.9479141 13.8964844,24.46875 C12.6790304,24.9895859 11.3802152,25.25 10,25.25 C8.61978477,25.25 7.32096963,24.9895859 6.10351562,24.46875 C4.88606162,23.9479141 3.82487432,23.2350306 2.91992188,22.3300781 C2.01496943,21.4251257 1.30208594,20.3639384 0.78125,19.1464844 C0.260414062,17.9290304 0,16.6302152 0,15.25 C0,13.8697848 0.260414062,12.5709696 0.78125,11.3535156 C1.30208594,10.1360616 2.01496943,9.07487432 2.91992188,8.16992188 C3.82487432,7.26496943 4.88606162,6.55208594 6.10351562,6.03125 C7.32096963,5.51041406 8.61978477,5.25 10,5.25 Z M10,24.0195312 C11.2109436,24.0195312 12.3469999,23.7884138 13.4082031,23.3261719 C14.4694063,22.86393 15.3938763,22.2356811 16.1816406,21.4414062 C16.969405,20.6471314 17.5943987,19.7194063 18.0566406,18.6582031 C18.5188825,17.5969999 18.75,16.4609436 18.75,15.25 C18.75,14.0390564 18.5188825,12.9030001 18.0566406,11.8417969 C17.5943987,10.7805937 16.969405,9.85612373 16.1816406,9.06835938 C15.3938763,8.28059502 14.4694063,7.65560127 13.4082031,7.19335938 C12.3469999,6.73111748 11.2109436,6.5 10,6.5 C8.78905645,6.5 7.6530001,6.73111748 6.59179688,7.19335938 C5.53059365,7.65560127 4.60612373,8.28059502 3.81835938,9.06835938 C3.03059502,9.85612373 2.40560127,10.7805937 1.94335938,11.8417969 C1.48111748,12.9030001 1.25,14.0390564 1.25,15.25 C1.25,16.4609436 1.48111748,17.5969999 1.94335938,18.6582031 C2.40560127,19.7194063 3.03059502,20.6471314 3.81835938,21.4414062 C4.60612373,22.2356811 5.53059365,22.86393 6.59179688,23.3261719 C7.6530001,23.7884138 8.78905645,24.0195312 10,24.0195312 Z" id="î…" stroke="none" fill="#7ED321" fill-rule="evenodd"></path>
</svg>