
<svg width="146px" height="37px" viewBox="38 21 146 37" version="1.1" xmlns="http://www.w3.org/2000/svg" xmlns:xlink="http://www.w3.org/1999/xlink">
    <defs></defs>
    <g id="branding" stroke="none" stroke-width="1" fill="none" fill-rule="evenodd" transform="translate(38.000000, 21.000000)">
        <path d="M89.87,15.89 C90.7033375,16.1366679 91.3999972,16.26 91.96,16.26 C93.026672,16.26 93.9433295,16.1000016 94.71,15.78 C95.4766705,15.4599984 96.0566647,15.0200028 96.45,14.46 C96.8433353,13.8999972 97.04,13.253337 97.04,12.52 C97.04,11.8666634 96.8833349,11.2966691 96.57,10.81 C96.2566651,10.3233309 95.866669,9.9100017 95.4,9.57 C94.933331,9.2299983 94.3066706,8.8333356 93.52,8.38 L92.94,8.04 L92.3,7.68 C91.6199966,7.279998 91.1300015,6.9500013 90.83,6.69 C90.5299985,6.4299987 90.38,6.1066686 90.38,5.72 C90.38,5.2666644 90.5699981,4.9233345 90.95,4.69 C91.3300019,4.4566655 91.819997,4.34 92.42,4.34 C92.9400026,4.34 93.4233311,4.4133326 93.87,4.56 C94.3166689,4.7066674 94.8133306,4.913332 95.36,5.18 L96.22,3.1 C94.8066596,2.4199966 93.5266724,2.08 92.38,2.08 C91.4066618,2.08 90.5700035,2.2366651 89.87,2.55 C89.1699965,2.8633349 88.6333352,3.2966639 88.26,3.85 C87.8866648,4.4033361 87.7,5.0266632 87.7,5.72 C87.7,6.3733366 87.8899981,6.9633307 88.27,7.49 C88.6500019,8.0166693 89.1033307,8.4733314 89.63,8.86 C90.1566693,9.2466686 90.8666622,9.706664 91.76,10.24 L92.36,10.6 C93.0400034,10.9733352 93.5433317,11.2966653 93.87,11.57 C94.1966683,11.8433347 94.36,12.146665 94.36,12.48 C94.36,12.9600024 94.1533354,13.3266654 93.74,13.58 C93.3266646,13.8333346 92.720004,13.96 91.92,13.96 C91.3999974,13.96 90.8266698,13.8633343 90.2,13.67 C89.5733302,13.4766657 89.0133358,13.2533346 88.52,13 L87.94,15.1 C88.3933356,15.3800014 89.0366625,15.6433321 89.87,15.89 Z M100.97,4.5 C101.256668,4.2199986 101.4,3.8733354 101.4,3.46 C101.4,3.0466646 101.256668,2.7000014 100.97,2.42 C100.683332,2.1399986 100.333335,2 99.92,2 C99.519998,2 99.1800014,2.1399986 98.9,2.42 C98.6199986,2.7000014 98.48,3.0466646 98.48,3.46 C98.48,3.8733354 98.6199986,4.2199986 98.9,4.5 C99.1800014,4.7800014 99.519998,4.92 99.92,4.92 C100.333335,4.92 100.683332,4.7800014 100.97,4.5 Z M98.64,6.3 L98.64,16 L101.24,16 L101.24,6.3 L98.64,6.3 Z M117.69,6.87 C118.176669,7.4633363 118.42,8.3466608 118.42,9.52 L118.42,16 L115.82,16 L115.82,10.04 C115.82,9.4133302 115.723334,8.9400016 115.53,8.62 C115.336666,8.2999984 115.033335,8.14 114.62,8.14 C114.219998,8.14 113.853335,8.2333324 113.52,8.42 C113.186665,8.6066676 112.760003,8.8866648 112.24,9.26 L112.24,16 L109.64,16 L109.64,10.04 C109.64,9.4133302 109.543334,8.9400016 109.35,8.62 C109.156666,8.2999984 108.853335,8.14 108.44,8.14 C108.039998,8.14 107.673335,8.2333324 107.34,8.42 C107.006665,8.6066676 106.573336,8.8933314 106.04,9.28 L106.04,16 L103.44,16 L103.44,6.3 L105.14,6.3 L105.58,7.34 C106.180003,6.9133312 106.799997,6.5800012 107.44,6.34 C108.080003,6.0999988 108.639998,5.98 109.12,5.98 C110.440007,5.98 111.333331,6.4199956 111.8,7.3 C112.400003,6.8866646 113.01333,6.5633345 113.64,6.33 C114.26667,6.0966655 114.819998,5.98 115.3,5.98 C116.406672,5.98 117.203331,6.2766637 117.69,6.87 Z M128.63,7.41 C129.503338,8.3233379 129.94,9.5599922 129.94,11.12 C129.94,12.1333384 129.743335,13.0266628 129.35,13.8 C128.956665,14.5733372 128.38667,15.1733312 127.64,15.6 C126.89333,16.0266688 126.006672,16.24 124.98,16.24 C124.433331,16.24 123.853336,16.0866682 123.24,15.78 L123.24,20.18 L120.66,20.38 L120.66,6.3 L121.98,6.3 L122.5,6.96 C123.286671,6.3466636 124.139995,6.04 125.06,6.04 C126.566674,6.04 127.756662,6.4966621 128.63,7.41 Z M126.64,13.21 C127.053335,12.6699973 127.26,11.9733376 127.26,11.12 C127.26,10.2666624 127.056669,9.5766693 126.65,9.05 C126.243331,8.5233307 125.680004,8.26 124.96,8.26 C124.399997,8.26 123.82667,8.4533314 123.24,8.84 L123.24,13.46 C123.786669,13.8333352 124.359997,14.02 124.96,14.02 C125.66667,14.02 126.226665,13.7500027 126.64,13.21 Z M131.74,2.1 L131.74,16 L134.32,16 L134.32,1.88 L131.74,2.1 Z M144.94,8.55 C145.260002,9.3166705 145.42,10.1733286 145.42,11.12 L145.42,11.92 L138.88,11.92 C139.013334,12.6000034 139.303331,13.1199982 139.75,13.48 C140.196669,13.8400018 140.879995,14.02 141.8,14.02 C142.333336,14.02 142.813331,13.9466674 143.24,13.8 C143.666669,13.6533326 144.126664,13.4400014 144.62,13.16 L145.38,15.04 C144.886664,15.4266686 144.353336,15.7233323 143.78,15.93 C143.206664,16.1366677 142.526671,16.24 141.74,16.24 C139.899991,16.24 138.503338,15.7900045 137.55,14.89 C136.596662,13.9899955 136.12,12.7466746 136.12,11.16 C136.12,10.1333282 136.316665,9.2333372 136.71,8.46 C137.103335,7.6866628 137.666663,7.0900021 138.4,6.67 C139.133337,6.2499979 139.999995,6.04 141,6.04 C141.973338,6.04 142.79333,6.2666644 143.46,6.72 C144.12667,7.1733356 144.619998,7.7833295 144.94,8.55 Z M139.6,8.75 C139.239998,9.0766683 139.006667,9.5533302 138.9,10.18 L142.96,10.18 C142.826666,9.5399968 142.590002,9.0600016 142.25,8.74 C141.909998,8.4199984 141.473336,8.26 140.94,8.26 C140.406664,8.26 139.960002,8.4233317 139.6,8.75 Z M87.2,19.44 L91.34,19.44 L91.34,31 L93.96,31 L93.96,19.44 L98.62,19.44 L98.2,17.4 L87.2,17.4 L87.2,19.44 Z M104.33,23.86 C104.97667,23.5399984 105.519998,23.38 105.96,23.38 L105.44,21.3 C104.959998,21.3 104.40667,21.466665 103.78,21.8 C103.15333,22.133335 102.606669,22.5066646 102.14,22.92 L101.28,21.3 L99.92,21.3 L99.92,31 L102.52,31 L102.52,25.08 C103.080003,24.5866642 103.68333,24.1800016 104.33,23.86 Z M109.59,19.5 C109.876668,19.2199986 110.02,18.8733354 110.02,18.46 C110.02,18.0466646 109.876668,17.7000014 109.59,17.42 C109.303332,17.1399986 108.953335,17 108.54,17 C108.139998,17 107.800001,17.1399986 107.52,17.42 C107.239999,17.7000014 107.1,18.0466646 107.1,18.46 C107.1,18.8733354 107.239999,19.2199986 107.52,19.5 C107.800001,19.7800014 108.139998,19.92 108.54,19.92 C108.953335,19.92 109.303332,19.7800014 109.59,19.5 Z M107.26,21.3 L107.26,31 L109.86,31 L109.86,21.3 L107.26,21.3 Z M120.15,22.41 C121.023338,23.3233379 121.46,24.5599922 121.46,26.12 C121.46,27.1333384 121.263335,28.0266628 120.87,28.8 C120.476665,29.5733372 119.90667,30.1733312 119.16,30.6 C118.41333,31.0266688 117.526672,31.24 116.5,31.24 C115.953331,31.24 115.373336,31.0866682 114.76,30.78 L114.76,35.18 L112.18,35.38 L112.18,21.3 L113.5,21.3 L114.02,21.96 C114.806671,21.3466636 115.659995,21.04 116.58,21.04 C118.086674,21.04 119.276662,21.4966621 120.15,22.41 Z M118.16,28.21 C118.573335,27.6699973 118.78,26.9733376 118.78,26.12 C118.78,25.2666624 118.576669,24.5766693 118.17,24.05 C117.763331,23.5233307 117.200004,23.26 116.48,23.26 C115.919997,23.26 115.34667,23.4533314 114.76,23.84 L114.76,28.46 C115.306669,28.8333352 115.879997,29.02 116.48,29.02 C117.18667,29.02 117.746665,28.7500027 118.16,28.21 Z M124.12,30.98 C124.78667,31.1533342 125.366664,31.24 125.86,31.24 C127.166673,31.24 128.166663,30.9766693 128.86,30.45 C129.553337,29.9233307 129.9,29.1733382 129.9,28.2 C129.9,27.4266628 129.58667,26.773336 128.96,26.24 C128.33333,25.706664 127.546671,25.2666684 126.6,24.92 C126.106664,24.7466658 125.730001,24.5900007 125.47,24.45 C125.209999,24.3099993 125.08,24.1533342 125.08,23.98 C125.08,23.7533322 125.189999,23.5566675 125.41,23.39 C125.630001,23.2233325 125.906665,23.14 126.24,23.14 C126.666669,23.14 127.076665,23.1933328 127.47,23.3 C127.863335,23.4066672 128.313331,23.5733322 128.82,23.8 L129.6,22.06 C129.146664,21.7533318 128.593337,21.5066676 127.94,21.32 C127.286663,21.1333324 126.733336,21.04 126.28,21.04 C125.119994,21.04 124.200003,21.3033307 123.52,21.83 C122.839997,22.3566693 122.5,23.0799954 122.5,24 C122.5,24.733337 122.806664,25.3399976 123.42,25.82 C124.033336,26.3000024 124.799995,26.6933318 125.72,27 C126.853339,27.3466684 127.42,27.7799974 127.42,28.3 C127.42,28.566668 127.253335,28.7733326 126.92,28.92 C126.586665,29.0666674 126.220002,29.14 125.82,29.14 C125.11333,29.14 124.266672,28.9200022 123.28,28.48 L122.5,30.24 C122.913335,30.5600016 123.45333,30.8066658 124.12,30.98 Z" id="Simple-Trips" fill="#4A4A4A"></path>
        <g id="van" transform="translate(0.000000, 0.000000)" fill-rule="nonzero" fill="#4A4A4A">
            <path d="M3.56653264,17.9420274 C2.72881978,17.9420274 2.34656245,19.1560934 2.34656245,20.2851748 C2.34656245,21.4142562 2.72791609,22.6283221 3.56653264,22.6283221 C4.40514919,22.6283221 4.78650284,21.4142562 4.78650284,20.2851748 C4.78650284,19.1560934 4.40424551,17.9420274 3.56653264,17.9420274 Z M3.56653264,21.6626727 C3.44724667,21.5179187 3.25024407,21.0425652 3.25024407,20.2851748 C3.25024407,19.4259896 3.50327493,18.9291565 3.52315593,18.8665854 C3.62888668,18.9291565 3.88191753,19.4250557 3.88191753,20.2851748 C3.88282121,21.0425652 3.68581862,21.5179187 3.56653264,21.6626727 Z" id="Shape"></path>
            <path d="M81.6563731,27.4173455 C81.6563731,26.8355277 80.9984928,26.5404163 80.4101961,26.3919267 C80.5692441,25.3683757 80.9424646,22.7758778 81.0527137,20.3757628 C81.1801329,17.6188991 80.7264847,14.4324428 80.6108134,13.6815897 C80.7066037,13.4714629 80.8340228,13.0951025 80.8042013,12.6057405 C80.7725724,12.0874277 80.5150232,11.7400181 80.2845844,11.5513709 L78.2865443,3.83458071 C76.8749936,0.487494187 74.6465147,0.520180579 74.5787386,0.522048373 C74.4061354,0.518312785 57.2370881,0.148489609 46.6378063,0.148489609 C35.5722248,0.148489609 21.106993,0.360484207 14.8752045,0.763927673 C10.0703293,1.01327815 9.07899057,2.58035716 8.88921743,3.04450393 L2.46313738,11.6933232 C2.25709797,11.9725584 2.04925119,12.2163055 1.86309278,12.4339035 C1.56578152,12.782247 1.31003962,13.0820279 1.1636432,13.3995529 C0.447927349,14.9507556 0.274420477,17.8355632 0.274420477,20.0190142 C0.272613114,20.0442294 0.271709432,20.0629073 0.271709432,20.065709 C0.271709432,20.0722463 0.274420477,20.0778497 0.274420477,20.084387 C0.27622784,20.9930686 0.306953015,21.777542 0.341292917,22.2818464 C0.456060484,23.9637947 0.642218899,24.6567462 0.839221494,25.3917231 C0.888923983,25.5775686 0.940433836,25.7671496 0.991040007,25.9791442 C1.15641374,26.6627568 0.95398906,26.896231 0.944048562,26.90557 C0.323219285,27.5088674 0.0385595722,28.1187021 0.0991062412,28.71733 C0.175015498,29.4765882 0.773252735,29.8753622 0.841932539,29.9183214 C0.912419705,29.9631485 0.993751052,29.9864959 1.07688976,29.9864959 L13.068745,29.9864959 C13.6570417,33.0300659 16.3961007,35.3405269 19.6809834,35.3405269 C23.1258178,35.3405269 25.9697039,32.8012612 26.363709,29.5391593 C26.38359,29.541961 26.40076,29.5512999 26.4215447,29.5512999 L56.1336929,29.5475643 L57.5678356,29.3654544 C57.8796058,32.7106732 60.7650612,35.3405269 64.2704423,35.3405269 C67.9827664,35.3405269 71.0037741,32.3912804 71.0037741,28.7658926 C71.0037741,28.7369418 70.9992556,28.707991 70.9992556,28.6790402 L74.5959085,28.7107927 C74.7667043,29.197353 75.1751684,29.5260847 75.4408508,29.6624337 C75.5032049,29.6941862 75.5718847,29.7109963 75.6414682,29.7109963 L80.0713155,29.7109963 C80.5791846,29.7109963 80.9768045,29.5569033 81.2560421,29.2533868 C81.7232455,28.744413 81.6843872,27.9870226 81.6636025,27.5798436 L81.6563731,27.4173455 Z M79.1125093,10.6296146 L77.4153952,10.6296146 C76.9725912,10.6296146 76.6129259,10.291544 76.6129259,9.87595983 L76.6129259,5.35683268 C76.6129259,4.94124855 76.9725912,4.60317787 77.4153952,4.60317787 L77.5563695,4.60317787 L79.1125093,10.6296146 Z M9.36455396,3.93824327 C9.66096154,4.22401572 9.89772612,4.55274744 9.84892731,4.70310484 C9.4757068,5.84712855 7.65388464,10.4988691 6.47277276,11.5084116 L3.74003952,11.5084116 L9.36455396,3.93824327 Z M1.98057139,13.8011285 C2.07274691,13.6012746 2.29053419,13.3463207 2.54266136,13.0512093 C2.69899828,12.8681655 2.86889043,12.6627082 3.04058994,12.4423085 L6.62368759,12.4423085 C6.71315207,12.4423085 6.80080919,12.4152255 6.87491108,12.3638612 C8.55395154,11.2011595 10.6857365,5.06265515 10.7056175,5.00195185 C10.9441894,4.27071057 10.3251675,3.55908112 9.88959299,3.16777832 C10.272754,2.73818574 11.4647101,1.875265 14.9267144,1.69595679 C21.1458513,1.29251332 35.5875874,1.08145262 46.63871,1.08145262 C57.2280513,1.08145262 74.3889654,1.4512758 74.5787386,1.45501139 C74.6166932,1.45781308 76.1086716,1.46995374 77.2274294,3.6888928 C76.3761613,3.78321638 75.7092443,4.49111024 75.7092443,5.35683268 L75.7092443,9.87595983 C75.7092443,10.8061211 76.4746626,11.5635115 77.4153952,11.5635115 L79.3537923,11.5635115 L79.456812,11.9632194 C79.4911519,12.0967667 79.5806164,12.2069665 79.700806,12.265802 C79.7026134,12.2667359 79.8851571,12.3732002 79.9032307,12.664576 C79.9104602,12.7841148 79.9005197,12.8859096 79.8842534,12.9774315 L26.119715,12.9774315 L26.119715,11.9753601 L26.1151966,5.43341222 C26.077242,5.16444991 25.798908,4.53873898 24.0511878,4.53873898 L12.3774285,4.5331356 L12.3774285,4.5331356 C12.2147658,4.5331356 12.0647547,4.6237236 11.984327,4.76941152 C11.2523449,6.10021462 8.87204748,10.5240843 8.98229663,11.568181 C8.99042977,11.7727044 9.13230778,12.4423085 10.593561,12.4423085 L25.2160334,12.4423085 L25.2160334,12.9774315 L10.3052865,12.9774315 C4.9753723,12.9774315 2.47849996,15.0805673 1.30642489,16.9959899 C1.42661455,15.717485 1.63717237,14.5454444 1.98057139,13.8011285 Z M10.593561,11.5084116 C10.1688306,11.5084116 9.97002065,11.4439727 9.88778562,11.4038152 C9.98086483,10.6735078 11.3273505,7.87648654 12.6403999,5.46703251 L13.4275066,5.46703251 L13.4275066,11.5074777 L10.593561,11.5074777 L10.593561,11.5084116 Z M14.3311882,5.46796641 L24.0511878,5.47263589 C24.8039546,5.47263589 25.1093989,5.59684418 25.2160334,5.65941528 L25.2160334,11.5084116 L14.3311882,11.5084116 L14.3311882,5.46796641 Z M1.23051564,29.052599 C1.14466588,28.9704161 1.01815046,28.8191248 0.99826946,28.6211386 C0.969351648,28.3316306 1.16454688,27.973948 1.53324898,27.6125299 C1.54770789,27.6003893 1.59018093,27.5611656 1.63988342,27.5004623 C3.54755533,26.9821495 4.24790859,27.2305661 4.46027377,27.3631795 C4.58136711,27.439759 4.64823955,27.5340826 4.67806104,27.6713654 C4.72414881,27.8842939 4.90578881,28.0355852 5.11725032,28.0365191 L12.9865099,28.0636022 C12.9612068,28.2942747 12.9467479,28.5277489 12.9467479,28.7649587 C12.9467479,28.862084 12.9575921,28.9554737 12.9612068,29.0516651 L1.23051564,29.0516651 L1.23051564,29.052599 Z M19.6809834,34.40663 C16.4665879,34.40663 13.8513332,31.8767032 13.8513332,28.7658926 C13.8513332,25.655082 16.4665879,23.1251553 19.6809834,23.1251553 C22.895379,23.1251553 25.5106336,25.655082 25.5106336,28.7658926 C25.5106336,31.8757693 22.895379,34.40663 19.6809834,34.40663 Z M64.2695386,34.40663 C61.055143,34.40663 58.4398884,31.8767032 58.4398884,28.7658926 C58.4398884,25.655082 61.055143,23.1251553 64.2695386,23.1251553 C67.4839341,23.1251553 70.0991887,25.655082 70.0991887,28.7658926 C70.0991887,31.8757693 67.4839341,34.40663 64.2695386,34.40663 Z M64.2695386,22.1912584 C60.6737894,22.1912584 57.7359204,24.9593288 57.5533767,28.426888 L56.0776646,28.6164691 L26.4215447,28.6164691 C26.4161226,28.6164691 26.4125079,28.6192708 26.4070858,28.6192708 C26.3980489,28.2232985 26.358287,27.8347974 26.2805703,27.4593709 L56.6822276,27.4593709 C56.9316438,27.4593709 57.1340684,27.2501779 57.1340684,26.9924224 C57.1340684,26.7346668 56.9316438,26.5254739 56.6822276,26.5254739 L26.0031401,26.5254739 C25.0615038,24.0020845 22.5872235,22.1912584 19.6809834,22.1912584 C16.5470155,22.1912584 13.914591,24.2953281 13.1672462,27.1306391 L5.42992416,27.1035561 C5.31606027,26.8840904 5.14707181,26.7010466 4.92838086,26.5646976 C4.32472153,26.1864694 3.30717602,26.1724609 1.95346094,26.4853164 C1.95617198,26.2742557 1.93629099,26.0351781 1.86851487,25.7531412 C1.81519765,25.5327415 1.76188043,25.3347554 1.71037058,25.1405048 C1.5178864,24.4223381 1.35160898,23.8022305 1.2422635,22.2146058 C1.20159783,21.6187796 1.17629474,20.8847366 1.17448738,20.0955937 C1.17448738,20.0946598 1.17539106,20.092792 1.17539106,20.0918581 C1.18352419,19.8387721 1.47722072,13.9103945 10.3052865,13.9103945 L25.2160334,13.9103945 L25.2160334,19.4689489 C25.2160334,19.7267044 25.4184581,19.9358973 25.6678742,19.9358973 C25.9172903,19.9358973 26.119715,19.7267044 26.119715,19.4689489 L26.119715,13.9103945 L79.7315312,13.9103945 C79.8562393,14.7527695 80.2683181,17.7795294 80.1508395,20.3309357 C80.038783,22.7487948 79.6556219,25.3693096 79.5074182,26.3144132 L76.0255329,26.4955892 C75.993904,26.497457 75.9622751,26.5021265 75.93155,26.5114655 C75.4905533,26.6328721 74.8019479,27.0279105 74.5868717,27.7740941 L70.9125022,27.7442094 C70.4073442,24.6035141 67.6258121,22.1912584 64.2695386,22.1912584 Z M80.5999692,28.6099318 C80.4978532,28.7210656 80.3198279,28.7770994 80.0704118,28.7770994 L75.7652725,28.7770994 C75.6423718,28.6911809 75.4200662,28.5006659 75.4191625,28.2447782 C75.4200662,27.7105891 75.974023,27.4799166 76.1276489,27.4257506 L79.862565,27.2315 C80.2186156,27.2922033 80.6144282,27.4192133 80.7554025,27.5163386 C80.7563062,27.5508927 80.7581135,27.5882486 80.7608246,27.6274723 C80.7752835,27.9141786 80.7987792,28.3923339 80.5999692,28.6099318 Z" id="Shape"></path>
            <path d="M62.2046261,11.5644454 L71.2531902,11.5644454 C72.1939228,11.5644454 72.9593411,10.8079889 72.9593411,9.87782762 L72.9593411,5.35589878 C72.9593411,4.42573746 72.1939228,3.66928096 71.2531902,3.66928096 L62.2046261,3.66928096 C61.2638935,3.66928096 60.4984751,4.42573746 60.4984751,5.35589878 L60.4984751,9.87782762 C60.4984751,10.8079889 61.2638935,11.5644454 62.2046261,11.5644454 Z M61.4021568,5.35589878 C61.4021568,4.94124855 61.7618221,4.60317787 62.2046261,4.60317787 L71.2531902,4.60317787 C71.6959942,4.60317787 72.0556595,4.94124855 72.0556595,5.35589878 L72.0556595,9.87782762 C72.0556595,10.2924778 71.6959942,10.6305485 71.2531902,10.6305485 L62.2046261,10.6305485 C61.7618221,10.6305485 61.4021568,10.2924778 61.4021568,9.87782762 L61.4021568,5.35589878 Z" id="Shape"></path>
            <path d="M46.7191377,11.5644454 L55.7677018,11.5644454 C56.7093381,11.5644454 57.4747564,10.8079889 57.4747564,9.87782762 L57.4747564,5.35589878 C57.4747564,4.42573746 56.7093381,3.66928096 55.7677018,3.66928096 L46.7191377,3.66928096 C45.7775014,3.66928096 45.0120831,4.42573746 45.0120831,5.35589878 L45.0120831,9.87782762 C45.0129868,10.8079889 45.7784051,11.5644454 46.7191377,11.5644454 Z M45.9166684,5.35589878 C45.9166684,4.94124855 46.2763337,4.60317787 46.7200414,4.60317787 L55.7686055,4.60317787 C56.2114095,4.60317787 56.5719785,4.94124855 56.5719785,5.35589878 L56.5719785,9.87782762 C56.5719785,10.2924778 56.2123132,10.6305485 55.7686055,10.6305485 L46.7191377,10.6305485 C46.2763337,10.6305485 45.9157647,10.2924778 45.9157647,9.87782762 L45.9157647,5.35589878 L45.9166684,5.35589878 Z" id="Shape"></path>
            <path d="M30.6851146,11.5644454 L39.7336787,11.5644454 C40.6744113,11.5644454 41.4398296,10.8079889 41.4398296,9.87782762 L41.4398296,5.35589878 C41.4398296,4.42573746 40.6744113,3.66928096 39.7336787,3.66928096 L30.6851146,3.66928096 C29.744382,3.66928096 28.9789637,4.42573746 28.9789637,5.35589878 L28.9789637,9.87782762 C28.9789637,10.8079889 29.744382,11.5644454 30.6851146,11.5644454 Z M29.8826453,5.35589878 C29.8826453,4.94124855 30.2423106,4.60317787 30.6851146,4.60317787 L39.7336787,4.60317787 C40.1764827,4.60317787 40.536148,4.94124855 40.536148,5.35589878 L40.536148,9.87782762 C40.536148,10.2924778 40.1764827,10.6305485 39.7336787,10.6305485 L30.6851146,10.6305485 C30.2423106,10.6305485 29.8826453,10.2924778 29.8826453,9.87782762 L29.8826453,5.35589878 Z" id="Shape"></path>
            <path d="M63.450803,16.2694181 L70.393789,16.2694181 C70.6432051,16.2694181 70.8456298,16.0602252 70.8456298,15.8024696 C70.8456298,15.5447141 70.6432051,15.3355212 70.393789,15.3355212 L63.450803,15.3355212 C63.2013869,15.3355212 62.9989622,15.5447141 62.9989622,15.8024696 C62.9989622,16.0602252 63.2013869,16.2694181 63.450803,16.2694181 Z" id="Shape"></path>
            <path d="M70.393789,17.3854249 L63.450803,17.3854249 C63.2013869,17.3854249 62.9989622,17.5946178 62.9989622,17.8523733 C62.9989622,18.1101289 63.2013869,18.3193218 63.450803,18.3193218 L70.393789,18.3193218 C70.6432051,18.3193218 70.8456298,18.1101289 70.8456298,17.8523733 C70.8456298,17.5946178 70.6432051,17.3854249 70.393789,17.3854249 Z" id="Shape"></path>
            <path d="M19.6809834,25.3375571 C17.7525268,25.3375571 16.1837355,26.8756853 16.1837355,28.7658926 C16.1837355,30.6561 17.7525268,32.1932943 19.6809834,32.1932943 C21.60944,32.1932943 23.1782313,30.6561 23.1782313,28.7658926 C23.1782313,26.8756853 21.60944,25.3375571 19.6809834,25.3375571 Z M19.6809834,31.2603313 C18.2504554,31.2603313 17.0874171,30.1415228 17.0874171,28.7668265 C17.0874171,27.3921303 18.2513591,26.2723879 19.6809834,26.2723879 C21.1106077,26.2723879 22.2745497,27.3911964 22.2745497,28.7668265 C22.2745497,30.1424567 21.1115114,31.2603313 19.6809834,31.2603313 Z" id="Shape"></path>
            <path d="M64.2695386,25.3375571 C62.341082,25.3375571 60.7722907,26.8756853 60.7722907,28.7658926 C60.7722907,30.6561 62.341082,32.1932943 64.2695386,32.1932943 C66.1979952,32.1932943 67.7667865,30.6561 67.7667865,28.7658926 C67.7667865,26.8756853 66.1979952,25.3375571 64.2695386,25.3375571 Z M64.2695386,31.2603313 C62.8390106,31.2603313 61.6759723,30.1415228 61.6759723,28.7668265 C61.6759723,27.3921303 62.8399142,26.2723879 64.2695386,26.2723879 C65.6991629,26.2723879 66.8631048,27.3911964 66.8631048,28.7668265 C66.8631048,30.1424567 65.6991629,31.2603313 64.2695386,31.2603313 Z" id="Shape"></path>
        </g>
    </g>
</svg>