<svg width="20px" height="18px" viewBox="202 9 20 18" version="1.1" xmlns="http://www.w3.org/2000/svg" xmlns:xlink="http://www.w3.org/1999/xlink">
    <path d="M220.571429,15 C220.965776,15 221.302454,15.1395075 221.581473,15.4185268 C221.860492,15.697546 222,16.0342242 222,16.4285714 C222,16.8229186 221.860492,17.1595968 221.581473,17.4386161 C221.302454,17.7176353 220.965776,17.8571429 220.571429,17.8571429 L220.571429,22.1428571 C220.571429,22.5297638 220.430061,22.8645819 220.147321,23.1473214 C219.864582,23.4300609 219.529764,23.5714286 219.142857,23.5714286 C216.040163,20.9895704 213.01936,19.5758941 210.080357,19.3303571 C209.648807,19.4717269 209.310269,19.7172602 209.064732,20.0669643 C208.819195,20.4166684 208.703869,20.7905486 208.71875,21.1886161 C208.733631,21.5866835 208.882439,21.9308021 209.165179,22.2209821 C209.016368,22.4665191 208.930804,22.7101922 208.908482,22.9520089 C208.886161,23.1938256 208.908482,23.4095973 208.975446,23.5993304 C209.042411,23.7890634 209.167038,23.9936745 209.34933,24.2131696 C209.531623,24.4326648 209.710193,24.6186748 209.885045,24.7712054 C210.059897,24.9237359 210.288689,25.111606 210.571429,25.3348214 C210.355654,25.7663712 209.940851,26.0751479 209.327009,26.2611607 C208.713167,26.4471735 208.086313,26.4899559 207.446429,26.3895089 C206.806544,26.289062 206.315478,26.0825908 205.973214,25.7700893 C205.921131,25.5989575 205.811385,25.2734399 205.643973,24.7935268 C205.476562,24.3136137 205.357515,23.9620547 205.28683,23.7388393 C205.216145,23.5156239 205.130581,23.184526 205.030134,22.7455357 C204.929687,22.3065454 204.873884,21.9308051 204.862723,21.6183036 C204.851562,21.305802 204.864583,20.9393622 204.901786,20.5189732 C204.938988,20.0985842 205.020833,19.687502 205.147321,19.2857143 L203.785714,19.2857143 C203.29464,19.2857143 202.874258,19.1108648 202.524554,18.7611607 C202.174849,18.4114566 202,17.9910739 202,17.5 L202,15.3571429 C202,14.866069 202.174849,14.4456863 202.524554,14.0959821 C202.874258,13.746278 203.29464,13.5714286 203.785714,13.5714286 L209.142857,13.5714286 C212.37948,13.5714286 215.71278,12.1428714 219.142857,9.28571429 C219.529764,9.28571429 219.864582,9.42708192 220.147321,9.70982143 C220.430061,9.99256094 220.571429,10.327379 220.571429,10.7142857 L220.571429,15 Z M219.142857,21.7410714 L219.142857,11.09375 C216.211295,13.340785 213.354181,14.616814 210.571429,14.921875 L210.571429,17.9352679 C213.376502,18.2477694 216.233616,19.5163579 219.142857,21.7410714 Z" stroke="none" fill="#4A4A4A" fill-rule="evenodd"></path>
</svg>