
<svg width="48px" height="44px" viewBox="81 2 48 44" version="1.1" xmlns="http://www.w3.org/2000/svg" xmlns:xlink="http://www.w3.org/1999/xlink">
    <path d="M129,13.59375 L129,41.25 C129,42.5000062 128.562504,43.5624956 127.6875,44.4375 C126.812496,45.3125044 125.750006,45.75 124.5,45.75 L85.5,45.75 C84.2499938,45.75 83.1875044,45.3125044 82.3125,44.4375 C81.4374956,43.5624956 81,42.5000062 81,41.25 L81,17.25 C81,16.0312439 81.4374956,14.9843794 82.3125,14.109375 C83.1875044,13.2343706 84.2343689,12.7812502 85.453125,12.75 L86.953125,12.75 L86.953125,6.75 C86.953125,5.49999375 87.398433,4.43750438 88.2890625,3.5625 C89.179692,2.68749562 90.2343689,2.25 91.453125,2.25 L125.34375,9 C127.031258,9.46875234 128.062498,10.2187448 128.4375,11.25 C128.812502,12.2812552 129,13.0624973 129,13.59375 Z M89.953125,6.75 L89.953125,12.75 L123,12.75 C123.593753,12.7812502 123.984374,12.6562514 124.171875,12.375 L124.453125,11.953125 L91.359375,5.25 C90.953123,5.28125016 90.6171888,5.43749859 90.3515625,5.71875 C90.0859362,6.00000141 89.953125,6.34374797 89.953125,6.75 Z M126,41.25 L126,14.25 C126,14.7500025 125.679691,15.1249988 125.039062,15.375 C124.398434,15.6250012 123.718754,15.75 123,15.75 L85.5,15.75 C85.093748,15.75 84.742189,15.898436 84.4453125,16.1953125 C84.148436,16.492189 84,16.843748 84,17.25 L84,41.25 C84,41.656252 84.148436,42.007811 84.4453125,42.3046875 C84.742189,42.601564 85.093748,42.75 85.5,42.75 L124.5,42.75 C124.906252,42.75 125.257811,42.601564 125.554688,42.3046875 C125.851564,42.007811 126,41.656252 126,41.25 Z M90,26.25 C90.8125041,26.25 91.515622,26.546872 92.109375,27.140625 C92.703128,27.734378 93,28.4374959 93,29.25 C93,30.0937542 92.703128,30.8046846 92.109375,31.3828125 C91.515622,31.9609404 90.8125041,32.25 90,32.25 C89.1562458,32.25 88.4453154,31.9609404 87.8671875,31.3828125 C87.2890596,30.8046846 87,30.0937542 87,29.25 C87,28.4374959 87.2890596,27.734378 87.8671875,27.140625 C88.4453154,26.546872 89.1562458,26.25 90,26.25 Z" id="" stroke="none" fill="#7ED321" fill-rule="evenodd"></path>
</svg>